# xmcd
#
# Track frame offsets: 
#        150
#        10862
#        20812
#        36115
#        48850
#        59660
#        71363
#        81617
#        94389
#        104430
#        116561
#        126608
#        138404
#        149342
#        160791
#        173542
#        185108
#        194930
#        206136
#        217539
#        228771
#        238202
#        247173
#        256878
#        267064
#        278411
#        285726
#        297409
#        306971
#        314477
#        324552
#        333223
#
# Disc length: 4597 seconds
#
# Revision: 0
# Processed by: cddbd v1.5.2PL0 Copyright (c) Steve Scherf et al.
# Submitted via: ExactAudioCopyFreeDBPlugin 1.0
#
DISCID=f311f320
DTITLE=Various Artist - Strut My Stuff: Obscure Country and Hillbilly B
DTITLE=oppers
DYEAR=2019
DGENRE=Country
TTITLE0=Slim Redman - Strut My Stuff
TTITLE1=Bobby Rutledge - Waitin' In Line
TTITLE2=Freddie Frank - Haywire Jones
TTITLE3=Leon Tassin - Get A Move On, Baby
TTITLE4=Joe Cannonball Lewis - You've Been Honky Tonkin'
TTITLE5=Cliff Shepherd - Live Live Live
TTITLE6=Bill White - Leave My Gal Alone
TTITLE7=Tani Allen - I'm Back In The Army
TTITLE8=Hank Harral - The D.J. Blues
TTITLE9=Weldon Rogers - Women Drivers
TTITLE10=Lou Millet - My Inlaws Made An Outlaw Out Of Me
TTITLE11=Tex Cherry - Dirty Jim Blues
TTITLE12=Roy Harris - South Of San Antonio
TTITLE13=Ray Anderson - Living Too Fast
TTITLE14=Chuck Ray - I May Not Be Able But I'm Willin' To Try
TTITLE15=Chuck Stacey - You Think It's Funny
TTITLE16=Jimmy Simpson - I Broke My Heart
TTITLE17=Carl Tanner - Sweet Talking Baby
TTITLE18=Lee Nichols - Baby You've Got Everything
TTITLE19=Luke Gordon - Mustache On The Cabbage Head
TTITLE20=Riley Crabtree - She Loves Me Better
TTITLE21=Rex Rinehart - Going Back (To My Baby)
TTITLE22=Roy Aldridge - It's Not Easy To Forget
TTITLE23=Penny West - Needle In A Haystack
TTITLE24=Aubrey Bradford - Get Your Feet On The Floor
TTITLE25=Jimmie King - Pretty Little Baby
TTITLE26=Hank The Drifter - Don't You Lock Your Daddy Out
TTITLE27=Riley Crabtree - Tattle Tattle Tale
TTITLE28=Billy Parks - Four Leaf Clover
TTITLE29=Jimmie Lawson - Ole Jack Hammer Blues
TTITLE30=Les and Helen Tussey - They Went Around
TTITLE31=Chuck Rogers - Out Of Gasoline
EXTD=
EXTT0=
EXTT1=
EXTT2=
EXTT3=
EXTT4=
EXTT5=
EXTT6=
EXTT7=
EXTT8=
EXTT9=
EXTT10=
EXTT11=
EXTT12=
EXTT13=
EXTT14=
EXTT15=
EXTT16=
EXTT17=
EXTT18=
EXTT19=
EXTT20=
EXTT21=
EXTT22=
EXTT23=
EXTT24=
EXTT25=
EXTT26=
EXTT27=
EXTT28=
EXTT29=
EXTT30=
EXTT31=
PLAYORDER=
